<svg height="1024" id="Tinder_2_" version="1.1" width="1024" xml:space="preserve" xmlns="http://www.w3.org/2000/svg"><g id="Background"><linearGradient gradientTransform="scale(1 -1) rotate(-20.004 -2033.49 -1165.28)" gradientUnits="userSpaceOnUse" id="bg_1_" x1="464.132" x2="-194.284" y1="-72.911" y2="711.668"><stop offset="0" stop-color="#e80066"/><stop offset=".139" stop-color="#ea0964"/><stop offset=".367" stop-color="#ee215e"/><stop offset=".653" stop-color="#f54954"/><stop offset=".986" stop-color="#ff8047"/><stop offset="1" stop-color="#ff8246"/></linearGradient><circle cx="512.001" cy="512" fill="url(#bg_1_)" id="bg" r="512"/></g><linearGradient gradientTransform="matrix(1 0 0 -1 214.34 1116.04)" gradientUnits="userSpaceOnUse" id="Shadow_1_" x1="122.321" x2="641.361" y1="742.648" y2="223.607"><stop offset="0"/><stop offset=".091" stop-color="#090004" stop-opacity=".909"/><stop offset=".239" stop-color="#21000f" stop-opacity=".76"/><stop offset=".427" stop-color="#490020" stop-opacity=".573"/><stop offset=".646" stop-color="#800038" stop-opacity=".354"/><stop offset=".889" stop-color="#c60057" stop-opacity=".111"/><stop offset="1" stop-color="#e80066" stop-opacity="0"/></linearGradient><path d="M597.052 1016.968l-271.65-271.687S264.334 569.667 395.001 447c0 0 26.667 46 50 56s158.667-210 104.667-286.667l-22.182-33.766L1003.24 656.79s-2.071 6.893-2.74 9.002-4.089 12.602-5.845 17.472-3.002 8.456-5.316 14.297c-2.313 5.842-2.696 6.889-4.427 10.997-1.731 4.109-4.03 9.526-5.992 13.819s-4.703 10.255-7.085 15.042-8.664 17.526-15.22 28.646c-6.557 11.121-14.182 23.967-22.02 35.079-7.837 11.113-8.371 12.431-16.604 22.85s-15.511 19.698-24.379 29.356-15.306 16.727-23.475 24.547c-8.169 7.821-16.872 16.242-26.984 24.606-10.113 8.364-14.629 12.201-22.539 18.067-7.91 5.865-19.097 14.178-30.198 21.185-11.101 7.007-17.06 10.925-27.477 16.636s-18.308 10.222-30.452 15.832c-12.146 5.611-12.958 6.56-28.39 12.52-15.431 5.96-16.343 6.742-30.296 11.165-13.953 4.422-25.982 8.18-37.712 10.952-11.729 2.771-18.996 4.441-25.872 5.729s-13.165 2.379-13.165 2.379z" fill="url(#Shadow_1_)" id="Shadow"/><path d="M580.362 236.578c35.065 37.836 67.536 78.374 94.54 122.397 70.258 114.533 126.727 303.889 1.049 403.783-62.703 49.838-155.049 61.688-231.968 45.458-65.563-13.833-131.554-56.693-157.375-120.697-30.65-75.971-2.637-161.614 36.445-228.918 7.905-13.611 16.491-26.822 25.625-39.639 17.315-24.293 35.685-45.688 55.823-67.716 0 0-5.525 56.7 33.353 99.559 0 0 153.175-97.168 87.324-271.75-.001 0 36.394 37.25 55.184 57.523z" fill="#FFF" id="Tinder_1_"/></svg>